<svg width="800" height="600" viewBox="0 0 800 600" fill="none" xmlns="http://www.w3.org/2000/svg">
<g clip-path="url(#clip0)">
<path d="M505.138 498.291V599.956H0.150569V555.441L15.7767 550.299V546.442H6.38636L13.3558 539.461V531.895C17.5007 528.959 28.8352 528.481 28.8352 528.481V512.356L17.9776 499.282L45.4152 489.77L71.3855 452.378L20.9121 364.193L25.3138 358.83C25.3138 358.83 124.61 358.574 166.096 376.901L152.377 312.151L155.055 309.724C155.055 309.724 189.315 306.126 222.181 310.607C236.304 312.518 250.133 315.932 260.917 321.697L260.256 318.688L242.833 236.929L246.024 233.036C246.024 233.036 432.733 284.859 492.046 448.998C497.621 464.389 502.095 480.844 505.138 498.291Z" fill="#060707"/>
<path d="M265.795 519.115L252.04 513.862L234.616 487.163C221.815 476.913 178.641 471.404 178.641 471.404L175.12 492.671H154.871L154.285 492.966C112.248 411.059 21.719 364.56 20.9487 364.193L25.3504 358.833C25.3504 358.833 66.91 358.723 107.479 363.608C129.635 366.288 151.46 370.44 166.096 376.901C197.825 390.824 241.256 449.809 241.256 449.809C253.177 472.177 261.064 499.797 264.768 514.673C265.098 516.324 265.465 517.83 265.795 519.115Z" fill="white"/>
<path d="M373.637 536.636H367.036L353.868 505.49C334.829 496.342 297.158 495.975 297.158 495.975L289.125 519.815H274.855C247.785 394.127 152.377 312.151 152.377 312.151L155.055 309.727C155.055 309.727 225.079 302.38 260.917 321.701L267.153 346.493C327.273 383.916 355.372 444.705 355.372 444.705C364.871 464.462 373.637 536.636 373.637 536.636Z" fill="white"/>
<path d="M492.081 448.963L469.081 472.543L406.576 536.635H384.973C379.506 482.277 347.263 332.168 242.869 236.893L246.061 233C246.061 233 270.894 239.905 305.301 256.615C365.276 285.742 454.408 344.692 492.081 448.963Z" fill="white"/>
<path d="M505.138 546.442V536.671H367.071L362.485 535.092L361.24 534.652L351.298 531.2L350.053 530.76L340.111 527.304L338.864 526.865L328.923 523.412L327.676 522.973L318.396 519.739H267.519L261.797 517.536L260.55 517.059L250.609 513.239L249.362 512.762L239.421 508.942L238.174 508.465L228.234 504.68L226.987 504.202L217.046 500.421L215.799 499.943L205.858 496.124L204.611 495.646L196.541 492.561H154.835L149.919 495.058L148.672 495.684L138.732 500.715L137.485 501.339L127.544 506.37L126.297 506.996L123.729 508.316H79.0884L28.8352 512.211V528.333C28.8352 528.333 17.5007 528.811 13.3557 531.75V539.316L6.38629 546.293H69.1111V550.188H15.7767L0.150485 555.33V576.081H59.4271V589.011H0.150485V599.807H505.138V550.04H235.24V546.442H505.138ZM135.541 589.156H120.905V576.227H135.541V589.156Z" fill="#FF4389"/>
<path d="M209.453 582.802L177.247 568.405H166.756L134.55 549.6H124.793L79.0518 524.441V508.426L28.7985 512.322V528.443C28.7985 528.443 17.464 528.921 13.319 531.861V539.427L6.3496 546.404H69.0745V550.299H15.7767L0.150485 555.441V576.192H59.4271V589.121H0.150485V599.918H505.138V582.802H209.453ZM135.541 589.156H120.905V576.23H135.541V589.156Z" fill="#DE176F"/>
<path d="M93.9807 508.426H92.7337V581.334H93.9807V508.426Z" fill="#DE176F"/>
<path d="M105.169 508.426H103.921V581.663H105.169V508.426Z" fill="#DE176F"/>
<path d="M116.356 508.426H115.109V581.995H116.356V508.426Z" fill="#DE176F"/>
<path d="M127.544 506.518V574.319H126.297V507.142L127.544 506.518Z" fill="#DE176F"/>
<path d="M138.732 500.826V582.657H137.485V501.449L138.732 500.826Z" fill="#DE176F"/>
<path d="M149.919 495.168V582.985H148.672V495.791L149.919 495.168Z" fill="#DE176F"/>
<path d="M161.107 492.672H159.86V583.28H161.107V492.672Z" fill="#DE176F"/>
<path d="M172.295 492.672H171.048V583.609H172.295V492.672Z" fill="#DE176F"/>
<path d="M183.483 492.672H182.236V583.941H183.483V492.672Z" fill="#DE176F"/>
<path d="M194.671 492.672H193.423V584.236H194.671V492.672Z" fill="#DE176F"/>
<path d="M205.858 496.235V584.565H204.611V495.757L205.858 496.235Z" fill="#DE176F"/>
<path d="M217.046 500.532V584.897H215.799V500.054L217.046 500.532Z" fill="#DE176F"/>
<path d="M228.234 504.791V585.226H226.987V504.313L228.234 504.791Z" fill="#DE176F"/>
<path d="M239.421 509.053V546.442H238.174V508.575L239.421 509.053Z" fill="#DE176F"/>
<path d="M239.421 550.222H238.174V585.558H239.421V550.222Z" fill="#DE176F"/>
<path d="M250.609 513.35V546.442H249.362V512.872L250.609 513.35Z" fill="#DE176F"/>
<path d="M250.609 550.222H249.362V585.887H250.609V550.222Z" fill="#DE176F"/>
<path d="M261.797 517.609V546.442H260.55V517.131L261.797 517.609Z" fill="#DE176F"/>
<path d="M261.797 550.222H260.55V586.219H261.797V550.222Z" fill="#DE176F"/>
<path d="M272.985 519.815H271.738V546.442H272.985V519.815Z" fill="#DE176F"/>
<path d="M272.985 550.222H271.738V586.548H272.985V550.222Z" fill="#DE176F"/>
<path d="M284.173 519.815H282.926V546.442H284.173V519.815Z" fill="#DE176F"/>
<path d="M284.173 550.222H282.926V586.881H284.173V550.222Z" fill="#DE176F"/>
<path d="M295.36 519.815H294.113V546.442H295.36V519.815Z" fill="#DE176F"/>
<path d="M295.36 550.222H294.113V587.171H295.36V550.222Z" fill="#DE176F"/>
<path d="M306.548 519.815H305.301V546.442H306.548V519.815Z" fill="#DE176F"/>
<path d="M306.548 550.222H305.301V587.504H306.548V550.222Z" fill="#DE176F"/>
<path d="M317.736 519.815H316.489V546.442H317.736V519.815Z" fill="#DE176F"/>
<path d="M317.736 550.222H316.489V587.833H317.736V550.222Z" fill="#DE176F"/>
<path d="M328.924 523.45V546.442H327.676V523.007L328.924 523.45Z" fill="#DE176F"/>
<path d="M328.924 550.222H327.676V588.165H328.924V550.222Z" fill="#DE176F"/>
<path d="M340.111 527.304V546.442H338.864V526.903L340.111 527.304Z" fill="#DE176F"/>
<path d="M340.111 550.222H338.864V588.459H340.111V550.222Z" fill="#DE176F"/>
<path d="M351.298 531.2V546.442H350.053V530.76L351.298 531.2Z" fill="#DE176F"/>
<path d="M351.298 550.222H350.053V588.788H351.298V550.222Z" fill="#DE176F"/>
<path d="M362.485 535.057V546.442H361.24V534.652L362.485 535.057Z" fill="#DE176F"/>
<path d="M362.485 550.222H361.24V589.121H362.485V550.222Z" fill="#DE176F"/>
<path d="M373.676 536.636H372.427V546.404H373.676V536.636Z" fill="#DE176F"/>
<path d="M373.676 550.222H372.427V589.45H373.676V550.222Z" fill="#DE176F"/>
<path d="M384.901 536.636H383.652V546.404H384.901V536.636Z" fill="#DE176F"/>
<path d="M384.901 550.222H383.652V589.782H384.901V550.222Z" fill="#DE176F"/>
<path d="M396.087 536.636H394.839V546.404H396.087V536.636Z" fill="#DE176F"/>
<path d="M396.087 550.222H394.839V590.073H396.087V550.222Z" fill="#DE176F"/>
<path d="M407.274 536.636H406.026V546.404H407.274V536.636Z" fill="#DE176F"/>
<path d="M407.274 550.222H406.026V590.405H407.274V550.222Z" fill="#DE176F"/>
<path d="M418.461 536.636H417.216V546.404H418.461V536.636Z" fill="#DE176F"/>
<path d="M418.461 550.222H417.216V590.734H418.461V550.222Z" fill="#DE176F"/>
<path d="M429.648 536.636H428.403V546.404H429.648V536.636Z" fill="#DE176F"/>
<path d="M429.648 550.222H428.403V591.067H429.648V550.222Z" fill="#DE176F"/>
<path d="M440.839 536.636H439.59V546.404H440.839V536.636Z" fill="#DE176F"/>
<path d="M440.839 550.222H439.59V591.361H440.839V550.222Z" fill="#DE176F"/>
<path d="M452.026 536.636H450.777V546.404H452.026V536.636Z" fill="#DE176F"/>
<path d="M452.026 550.222H450.777V591.69H452.026V550.222Z" fill="#DE176F"/>
<path d="M463.212 536.636H461.968V546.404H463.212V536.636Z" fill="#DE176F"/>
<path d="M463.212 550.222H461.968V592.022H463.212V550.222Z" fill="#DE176F"/>
<path d="M265.795 519.115C222.181 438.974 140.639 383.733 107.406 363.608C129.562 366.288 151.387 370.436 166.023 376.901C197.752 390.824 241.182 449.809 241.182 449.809C253.104 472.177 260.99 499.797 264.695 514.669L265.795 519.115Z" fill="#D0D0D0"/>
<path d="M373.676 536.636C297.304 363.608 197.165 308.55 197.165 308.55L222.218 310.572C236.34 312.48 250.169 315.898 260.954 321.663L260.293 318.65L272.361 342.085C272.361 342.085 349.5 417.524 361.24 443.16C373.015 468.87 373.676 536.636 373.676 536.636Z" fill="#D0D0D0"/>
<path d="M492.081 448.964L469.081 472.544C395.832 352.954 305.301 256.615 305.301 256.615C365.276 285.742 454.408 344.692 492.081 448.964Z" fill="#D0D0D0"/>
<path d="M545.939 346.858V599.966H382V348.925L420.994 335.432L430.446 336.299L433.539 336.597L442.09 337.363L445.186 337.665L453.737 338.431L456.833 338.698L465.384 339.496L468.477 339.763L477.028 340.564L480.124 340.831L488.675 341.629L491.768 341.896L500.319 342.697L503.415 342.961L511.966 343.761L512.566 343.796L515.059 344.028L545.939 346.858Z" fill="#FF4389"/>
<path d="M420.994 335.432V599.966H382V348.925L420.994 335.432Z" fill="#DE176F"/>
<path d="M512.566 343.796L511.966 343.727V344.66C509.303 348.627 506.442 353.256 503.415 358.42V342.929L500.319 342.627V363.851C497.559 368.782 494.698 374.146 491.768 379.91V341.861L488.675 341.594V386.073C485.846 391.739 483.019 397.735 480.124 403.998V340.831L477.028 340.529V410.829C474.167 417.193 471.306 423.82 468.477 430.617V339.763L465.384 339.496V438.18C462.489 445.345 459.628 452.672 456.833 460.135V338.698L453.737 338.431V468.6C450.776 476.795 447.915 485.124 445.186 493.52V337.665L442.09 337.363V503.282C438.997 513.242 436.136 523.305 433.539 533.3V336.597L430.446 336.333V545.826C426.054 564.451 422.76 582.741 420.994 600H545.939V346.893L512.566 343.796Z" fill="#060707"/>
<path d="M691.411 416.725C691.411 417.623 691.411 418.524 691.411 419.423C691.411 421.09 691.411 422.755 691.411 424.42V425.086C691.379 448.175 691.078 467.899 690.614 485.589C689.415 530.466 686.953 561.854 683.594 599.934H532.231C528.438 557.356 526.042 523.17 525.141 469.099C524.909 455.138 524.777 439.813 524.743 422.721C524.743 420.754 524.743 418.757 524.743 416.725C524.743 415.493 524.743 414.259 524.743 413.028C524.743 410.795 524.777 408.53 524.809 406.297C525.276 378.343 527.572 350.59 531.264 324.137C531.566 321.872 531.898 319.639 532.231 317.409C533.263 310.477 534.36 303.649 535.59 296.918C538.686 279.658 542.312 263.168 546.337 247.775C547.767 242.245 549.267 236.881 550.798 231.65C564.007 186.739 580.378 153.622 595.285 142.228C607.064 140.862 608.993 140.862 620.539 142.028C624.031 144.594 627.56 148.225 631.054 152.79C636.409 159.786 641.767 169.015 646.958 180.109C653.546 194.235 659.866 211.36 665.557 230.717C666.19 232.85 666.821 235.015 667.42 237.181C667.821 238.613 668.22 240.046 668.618 241.512C668.951 242.778 669.318 244.044 669.65 245.31C673.543 260.036 677.037 275.83 680.065 292.354C680.331 293.821 680.598 295.284 680.864 296.751C682.129 303.881 683.258 311.177 684.324 318.574C685.921 329.734 687.286 341.129 688.384 352.722C688.515 354.255 688.681 355.822 688.816 357.355C690.479 376.879 691.411 396.767 691.411 416.725Z" fill="#D0D0D0"/>
<path d="M643.332 502.648C655.606 502.648 665.557 451.099 665.557 387.505C665.557 323.914 655.606 272.363 643.332 272.363C631.054 272.363 621.104 323.914 621.104 387.505C621.104 451.099 631.054 502.648 643.332 502.648Z" fill="white"/>
<path d="M665.557 230.751C627.394 226.953 588.929 227.252 550.798 231.684C564.007 186.773 580.378 153.656 595.285 142.261C607.064 140.895 608.993 140.895 620.539 142.062C636.076 153.456 652.448 186.273 665.557 230.751Z" fill="#060707"/>
<path d="M598.246 215.991C593.653 223.621 588.361 232.15 582.273 241.578C575.253 215.758 574.688 200.832 574.653 199.599L585.3 199.3L595.95 198.967C595.95 199.033 596.216 205.03 598.246 215.991Z" fill="#060707"/>
<path d="M612.054 264.567C607.829 271.397 603.07 278.826 597.813 286.823C591.291 270.897 586.599 256.871 583.239 244.976C589.262 235.681 594.485 227.319 599.011 219.856C600.109 225.12 601.571 231.35 603.535 238.413C605.633 245.776 608.394 254.538 612.054 264.567Z" fill="#060707"/>
<path d="M629.988 306.378C625.929 312.811 621.471 319.74 616.578 327.168C609.658 313.81 603.902 301.35 599.077 289.822C604.334 281.826 609.059 274.495 613.252 267.732C617.544 279.159 623.033 292.118 629.988 306.378Z" fill="#060707"/>
<path d="M650.352 344.226C646.425 350.457 642.134 357.154 637.409 364.315C635.844 361.586 634.247 358.818 632.585 356.054C627.227 346.993 622.368 338.264 617.977 329.869C622.902 322.437 627.328 315.54 631.352 309.176C636.776 320.138 643.065 331.866 650.352 344.226Z" fill="#060707"/>
<path d="M671.015 381.609C666.99 388.039 662.53 394.968 657.605 402.399C652.15 391.271 645.926 379.376 638.871 366.916C643.63 359.72 647.956 353.024 651.849 346.827C657.639 356.62 664.195 368.383 671.015 381.609Z" fill="#060707"/>
<path d="M691.379 425.12C691.345 448.209 691.047 467.931 690.579 485.624C688.851 479.725 686.652 472.73 683.857 464.799C681.962 459.369 679.698 453.206 677.038 446.444C676.639 445.442 676.238 444.443 675.839 443.444C671.347 432.184 665.757 419.322 658.938 405.197C663.894 397.735 668.352 390.802 672.379 384.408C678.201 395.9 684.19 408.429 689.914 421.756C690.347 422.755 690.746 423.719 691.179 424.721C691.279 424.853 691.345 424.985 691.379 425.12Z" fill="#060707"/>
<path d="M666.789 238.88C665.456 242.245 662.031 250.374 654.744 264.067C647.956 249.741 642.497 236.581 638.172 224.72C637.742 223.554 637.341 222.421 636.942 221.289C630.022 201.798 626.129 186.039 623.934 174.578C623.632 172.946 623.334 171.447 623.099 169.981C621.336 159.686 621.135 153.855 621.104 153.123L631.051 152.823C636.409 159.819 641.767 169.048 646.958 180.142C647.789 183.774 648.821 187.705 650.02 191.936C653.379 203.997 658.637 219.889 666.789 238.88Z" fill="#060707"/>
<path d="M680.033 292.42C678.568 295.35 676.837 298.683 674.873 302.414C667.752 289.989 661.563 278.16 656.209 267.065C656.707 266.166 657.172 265.266 657.605 264.433C663.295 253.706 666.557 246.509 668.286 242.345C668.718 243.344 669.186 244.343 669.616 245.376C673.508 260.102 677.003 275.895 680.033 292.42Z" fill="#060707"/>
<path d="M684.29 318.64C682.593 315.641 680.83 312.61 679.033 309.579C678.167 308.112 677.304 306.645 676.438 305.179C677.003 304.114 677.536 303.115 678.069 302.148C679.067 300.282 679.999 298.517 680.83 296.852C682.063 303.982 683.226 311.244 684.29 318.64Z" fill="#060707"/>
<path d="M554.025 283.657C549.101 290.922 543.909 298.849 538.652 307.144C537.62 303.781 536.588 300.382 535.59 296.952C538.686 279.693 542.312 263.201 546.337 247.809C547.636 256.071 549.866 267.732 553.593 281.957C553.724 282.526 553.856 283.091 554.025 283.657Z" fill="#060707"/>
<path d="M568.998 329.536C564.405 336.465 559.647 343.862 554.923 351.523C549.565 338.83 544.373 325.07 539.684 310.477C544.872 302.248 550.032 294.352 554.923 287.055C558.216 298.985 562.774 313.376 568.998 329.536Z" fill="#060707"/>
<path d="M587.163 370.779C582.806 377.41 578.349 384.439 573.923 391.638C568.198 380.777 562.144 368.317 556.221 354.522C560.911 346.927 565.635 339.531 570.227 332.599C574.886 344.493 580.475 357.321 587.163 370.779Z" fill="#060707"/>
<path d="M607.628 408.461C603.337 415.026 598.942 421.923 594.55 429.018C590.99 422.322 587.198 415.459 583.173 408.461C580.711 404.164 578.082 399.434 575.353 394.368C579.745 387.206 584.202 380.209 588.528 373.547C592.521 381.443 596.847 389.572 601.605 397.835C603.534 401.165 605.564 404.73 607.628 408.461Z" fill="#060707"/>
<path d="M627.525 447.009C623.068 453.806 618.51 461.002 614.018 468.364C608.792 456.903 602.835 444.644 596.016 431.751C600.376 424.621 604.767 417.692 609.093 411.093C614.915 421.722 621.204 433.814 627.525 447.009Z" fill="#060707"/>
<path d="M645.725 488.256C641.036 495.486 636.277 503.081 631.584 510.845C627.293 499.218 621.935 485.922 615.348 471.264C619.84 463.867 624.432 456.671 628.89 449.808C634.58 461.835 640.302 474.728 645.725 488.256Z" fill="#060707"/>
<path d="M671.981 575.812L650.882 578.812C650.851 578.645 648.257 560.952 638.639 531.233C636.976 526.069 635.013 520.34 632.748 514.109C637.409 506.313 642.199 498.649 646.924 491.321C651.249 502.315 655.374 513.71 659.135 525.372C669.186 556.59 671.88 575.046 671.981 575.812Z" fill="#060707"/>
<path d="M604.868 599.965H582.671C581.74 596.903 580.742 593.671 579.644 590.273C570.861 563.119 554.289 520.205 525.11 469.131C524.875 455.172 524.743 439.848 524.708 422.755C529.934 433.717 535.891 445.143 542.61 456.872C559.647 486.522 583.471 532.668 600.109 584.409C601.972 590.006 603.535 595.204 604.868 599.965Z" fill="#060707"/>
<path d="M538.652 307.147C539.019 308.247 539.351 309.378 539.715 310.477C536.889 314.943 534.094 319.507 531.299 324.137C531.597 321.872 531.929 319.639 532.262 317.409C534.361 313.941 536.49 310.511 538.652 307.147Z" fill="#060707"/>
<path d="M582.307 241.546C582.605 242.679 582.938 243.811 583.27 244.978C577.15 254.439 570.196 264.867 562.31 276.263C559.948 279.661 557.485 283.292 554.957 287.055C554.621 285.89 554.323 284.759 554.025 283.657C556.121 280.56 558.15 277.595 560.114 274.73C568.464 262.602 575.852 251.574 582.307 241.546Z" fill="#060707"/>
<path d="M629.056 162.452C628.99 162.685 627.726 166.45 623.934 174.512C622.136 178.344 619.74 183.141 616.678 188.972C612.619 196.668 606.863 206.929 599.043 219.856C598.776 218.49 598.512 217.191 598.277 215.958C611.888 193.27 619.341 178.31 623.134 169.948C625.631 164.384 626.528 161.719 626.562 161.619L629.056 162.452Z" fill="#060707"/>
<path d="M554.923 351.522C555.356 352.524 555.789 353.523 556.187 354.522C545.042 372.614 534.125 392.003 526.142 409.827C525.643 410.927 525.176 411.994 524.743 413.028C524.743 410.795 524.777 408.53 524.809 406.297C532.996 388.507 543.875 369.347 554.923 351.522Z" fill="#060707"/>
<path d="M597.813 286.854C598.211 287.822 598.61 288.82 599.043 289.822C594.118 297.316 588.694 305.379 582.74 313.976C578.813 319.674 574.588 325.937 570.196 332.598C569.795 331.568 569.396 330.566 568.998 329.567C573.022 323.471 576.915 317.739 580.545 312.478C586.865 303.316 592.621 294.785 597.813 286.854Z" fill="#060707"/>
<path d="M649.521 200.166C649.421 200.499 646.924 207.962 638.175 224.687C637.839 225.353 637.475 226.02 637.108 226.686C632.017 236.281 624.363 249.875 613.218 267.699C612.82 266.633 612.418 265.567 612.054 264.534C623.632 245.877 631.584 231.584 636.942 221.222C644.627 206.296 646.958 199.466 646.99 199.3L649.521 200.166Z" fill="#060707"/>
<path d="M573.923 391.604C574.421 392.536 574.886 393.438 575.353 394.336C564.637 411.828 554.289 430.384 546.604 447.543C545.073 451.008 543.743 454.108 542.645 456.906C537.554 469.765 536.823 475.563 536.823 475.629L534.16 475.328C534.194 475.029 534.991 468.6 540.948 453.973C541.845 451.774 542.877 449.374 544.01 446.777C551.961 428.987 562.809 409.695 573.923 391.604Z" fill="#060707"/>
<path d="M617.977 329.869C613.45 336.697 608.525 343.962 603.202 351.692C598.644 358.288 593.653 365.685 588.528 373.512C588.064 372.579 587.596 371.681 587.163 370.748C592.022 363.351 596.715 356.422 601.041 350.159C606.662 341.996 611.822 334.332 616.578 327.171C617.011 328.069 617.509 328.967 617.977 329.869Z" fill="#060707"/>
<path d="M656.174 267.066C650.719 277.161 642.733 291.119 631.352 309.18C630.888 308.247 630.421 307.314 629.988 306.381C641.102 288.688 649.088 274.696 654.744 264.067C655.211 265.067 655.71 266.067 656.174 267.066Z" fill="#060707"/>
<path d="M668.587 241.545C668.486 241.812 668.386 242.045 668.254 242.312C667.752 241.146 667.254 240.013 666.755 238.88C667.087 238.014 667.288 237.481 667.388 237.214C667.821 238.647 668.185 240.08 668.587 241.545Z" fill="#060707"/>
<path d="M594.551 429.018C595.049 429.92 595.517 430.853 596.015 431.751C585.234 449.343 574.788 468 567.069 485.257C565.472 488.79 564.139 491.987 563.041 494.821C558.016 507.548 557.285 513.277 557.285 513.343L554.656 513.044C554.691 512.743 555.487 506.313 561.444 491.655C562.341 489.456 563.373 487.056 564.506 484.49C572.492 466.599 583.371 447.176 594.551 429.018Z" fill="#060707"/>
<path d="M638.871 366.916C634.213 373.945 629.156 381.443 623.667 389.405C619.14 395.969 614.184 403.297 609.093 411.127C608.594 410.229 608.127 409.362 607.628 408.495C612.487 401.099 617.177 394.17 621.471 387.907C627.259 379.542 632.55 371.681 637.375 364.35C637.908 365.185 638.372 366.049 638.871 366.916Z" fill="#060707"/>
<path d="M676.438 305.147C671.015 315.21 663.094 329.037 651.883 346.792C651.55 346.227 651.249 345.693 650.917 345.162C650.719 344.826 650.553 344.528 650.352 344.195C661.3 326.804 669.217 312.977 674.873 302.383C675.375 303.316 675.905 304.249 676.438 305.147Z" fill="#060707"/>
<path d="M614.018 468.365C614.482 469.366 614.915 470.331 615.348 471.298C604.965 488.356 594.983 506.313 587.53 522.972C585.234 528.101 583.471 532.467 582.141 536.133C578.349 546.36 577.781 550.992 577.781 551.058L575.121 550.757C575.152 550.493 575.817 544.962 580.642 532.599C581.84 529.568 583.27 526.104 585.002 522.206C592.687 504.849 603.202 486.057 614.018 468.365Z" fill="#060707"/>
<path d="M658.969 405.163C654.446 412.026 649.486 419.323 644.129 427.087C639.405 433.915 634.213 441.614 628.89 449.808C628.457 448.875 627.993 447.943 627.56 447.01C632.585 439.314 637.475 432.084 641.967 425.589C647.658 417.359 652.846 409.63 657.639 402.399C658.072 403.332 658.536 404.265 658.969 405.163Z" fill="#060707"/>
<path d="M688.75 357.421C684.29 365.085 678.901 374.08 672.411 384.408C671.946 383.475 671.479 382.574 671.015 381.641C677.935 370.613 683.659 361.02 688.349 352.791C688.484 354.321 688.616 355.854 688.75 357.421Z" fill="#060707"/>
<path d="M631.584 510.845C631.986 511.945 632.384 513.009 632.751 514.043C623.501 529.534 614.683 545.628 607.995 560.654C603.403 570.947 600.94 578.177 599.61 582.709C598.443 586.739 598.211 588.671 598.211 588.705L595.583 588.407C595.617 588.206 595.981 585.075 598.18 578.344C599.642 573.846 601.907 567.749 605.432 559.853C612.453 544.095 621.804 527.103 631.584 510.845Z" fill="#060707"/>
<path d="M691.411 419.457C691.411 421.122 691.411 422.79 691.411 424.454C691.345 424.555 691.31 424.621 691.244 424.721C686.988 431.418 682.295 438.648 677.103 446.444C673.211 452.274 669.051 458.405 664.625 464.834C659.201 472.73 653.147 481.691 646.958 491.287C646.56 490.288 646.158 489.255 645.76 488.256C651.616 479.226 657.307 470.764 662.464 463.301C667.288 456.306 671.78 449.676 675.94 443.413C681.131 435.614 685.789 428.387 690.015 421.722C690.448 420.956 690.912 420.189 691.411 419.457Z" fill="#060707"/>
<path d="M761.918 541.529H551.463V599.966H761.918V541.529Z" fill="#FF4389"/>
<path d="M761.918 521.804H572.589V541.494H761.918V521.804Z" fill="#DE176F"/>
<path d="M611.788 541.529L582.671 599.966H551.463V541.529H611.788Z" fill="#060707"/>
<path d="M627.525 521.804H572.589V541.494H627.525V521.804Z" fill="#060707"/>
<path d="M627.544 558.738H638.893V553.072H627.544V558.738Z" fill="#060707"/>
<path d="M644.81 558.738H751.949V553.072H644.81V558.738Z" fill="#060707"/>
<path d="M644.81 569.379H751.949V563.716H644.81V569.379Z" fill="#060707"/>
<path d="M644.81 579.993H751.949V574.326H644.81V579.993Z" fill="#060707"/>
<path d="M233.684 599.968L237.838 582.459C237.838 582.459 229.533 571.234 233.684 548.348C233.684 548.348 220.725 548.003 215.011 524.396C214.355 521.613 213.763 518.518 213.324 515.078L221.226 498.445L216.666 490.943L225.597 475.152C225.597 475.152 209.203 473.496 205.862 467.241C202.553 461.018 196.088 451.639 205.862 435.005L203.772 422.31L212.921 407.336C212.921 407.336 214.387 404.208 210.828 400.674C207.831 397.673 199.179 395.86 197.369 380.444C197.057 377.662 196.933 374.472 197.118 370.72C198.37 346.178 225.162 321.633 225.162 321.633L230.157 319.537C230.157 319.537 229.312 290.522 233.372 281.798L228.376 262.475C228.376 262.475 224.941 203.1 235.745 158.607C235.745 158.607 233.06 129.498 227.658 121.4C227.658 121.4 226.754 115.522 229.939 111.082C229.939 111.082 225.223 104.578 222.194 102.077C222.194 102.077 221.85 101.014 222.35 98.2937C210.077 91.2273 202.114 79.8152 202.114 66.933C202.114 61.0239 203.801 55.3956 206.798 50.3932C205.988 49.4549 204.614 48.642 204.614 48.642C204.614 48.642 204.396 45.2967 208.549 44.3272C209.359 42.0448 210.484 39.8874 211.826 37.8238C211.264 36.5731 210.454 34.4157 210.828 33.1963C211.172 32.1333 213.981 32.1958 216.198 32.4458C217.823 30.7889 219.665 29.2567 221.632 27.8497C221.756 26.005 222.1 22.9721 223.163 22.4406C224.287 21.8778 226.784 22.6282 228.409 23.8789C229.501 23.3473 230.658 22.8783 231.812 22.4093C231.217 21.6277 230.781 20.5646 231.188 19.3139C232.091 16.6875 233.593 16.4686 232.186 14.0298C232.091 13.8735 232.03 13.6859 232 13.5296C231.532 11.0908 236.778 7.74521 241.179 9.74628C241.179 9.74628 249.266 -0.509207 261.383 0.0535948C273.5 0.616395 279.119 5.05628 277.091 13.8422C277.091 13.8422 280.962 13.2794 281.869 15.9058C281.869 15.9058 281.931 17.1252 281.554 18.9074C281.242 20.3144 280.68 22.0654 279.587 23.8163C279.587 23.8163 283.897 25.536 285.678 27.5683C285.678 27.5683 290.456 25.9112 293.421 28.1937C293.421 28.1937 290.235 33.384 290.174 36.2604C290.86 37.1986 291.487 38.1365 292.078 39.137C292.078 39.137 296.668 37.7301 299.073 40.5126C299.073 40.5126 296.17 43.5142 295.14 46.2659C295.481 47.4228 295.732 48.6107 295.92 49.8302C299.135 54.9891 300.948 60.8049 300.948 66.933C300.948 78.627 294.389 89.1011 284.021 96.23C284.739 102.671 285.834 114.771 285.051 121.056C284.928 122.025 284.804 122.994 284.677 123.932C280.212 155.105 270.064 168.988 272.876 185.934C275.778 203.413 287.674 247.217 287.674 269.26C287.674 291.303 285.614 301.276 285.614 301.276L289.361 314.317C289.361 314.317 294.607 312.66 296.824 317.63L297.201 317.756L307.631 321.633C307.631 321.633 313.312 313.877 323.274 309.155L305.349 239.088L337.887 303.404C337.887 303.404 351.535 300.589 358.686 301.872C358.748 301.872 358.777 301.904 358.842 301.904L387.194 232.053L374.518 305.468C374.518 305.468 374.518 305.468 374.547 305.497C374.58 305.497 374.609 305.53 374.674 305.562C375.077 305.78 376.202 306.373 377.671 307.186C377.7 307.186 377.732 307.219 377.765 307.248C381.604 309.406 387.756 313.19 390.223 316.347L448.429 283.987L399.561 328.698C399.561 328.698 403.058 335.389 404.18 342.8C404.401 344.271 404.557 345.738 404.557 347.209L466.572 347.083L404.557 361.497C404.557 361.497 404.339 372.659 402.558 377.85L457.578 404.677L405.025 396.58C405.025 396.58 403.995 400.736 406.273 404.677C406.273 404.677 403.432 412.774 393.347 407.804L392.066 420.904C392.066 420.904 400.809 437.195 402.058 446.604C402.058 446.604 400.683 450.89 398.03 452.859C398.03 452.859 401.216 459.645 400.091 463.238L411.707 473.652C411.707 473.652 421.137 471.149 424.166 481.56C424.166 481.56 444.652 486.969 453.519 496.381C453.519 496.381 457.39 509.825 460.169 513.422C462.948 517.018 475.595 519.862 476.44 541.501C476.44 541.501 490.991 546.503 495.145 557.103C499.296 567.703 506.355 600 506.355 600H233.684V599.968Z" fill="#060707"/>
<path d="M307.192 345.8C306.786 355.775 256.104 380.444 256.104 380.444L283.897 350.962C283.179 351.649 271.218 362.935 255.139 370.345C238.527 377.974 223.286 374.785 223.286 374.785C242.804 369.376 266.349 345.957 266.349 345.957C266.349 345.957 264.692 327.666 262.602 312.409C260.541 297.149 263.287 284.831 263.287 284.831C250.14 270.136 246.113 252.814 246.113 252.814L246.737 189.655C246.737 189.655 251.109 175.523 262.725 169.801C262.725 169.801 272.187 167.393 271.033 153.573C271.033 153.573 272.625 148.883 274.966 147.789C274.966 147.789 276.279 143.005 273.155 139.316C270.032 135.626 260.57 132.937 252.672 136.002L251.015 132.812C251.015 132.812 260.073 128.029 273.438 134.688C273.438 134.688 283.459 131.718 284.989 121.087C280.774 154.293 269.908 168.488 272.811 185.966C275.716 203.444 287.612 247.249 287.612 269.292C287.612 291.335 285.552 301.309 285.552 301.309L289.299 314.346C289.299 314.346 294.545 312.689 296.762 317.662L297.136 317.786L298.699 323.885C298.699 323.885 304.101 327.917 304.787 330.667C305.476 333.45 303.132 335.672 303.132 335.672L307.192 345.8Z" fill="#FF4389"/>
<path d="M267.285 153.073C267.597 147.101 271.689 143.13 271.689 143.13C265.881 135.439 256.731 139.535 256.731 139.535C262.54 141.692 259.917 151.041 259.917 151.041C259.917 151.041 261.851 150.916 263.476 151.291C266.317 151.885 267.285 153.073 267.285 153.073Z" fill="#FF4389"/>
<path d="M269.001 159.855C269.54 157.233 267.032 154.502 263.399 153.754C259.767 153.006 256.387 154.525 255.848 157.147C255.31 159.769 257.818 162.5 261.45 163.248C265.083 163.996 268.463 162.476 269.001 159.855Z" fill="#FF4389"/>
<path d="M341.261 374.065C341.261 374.065 345.412 369.063 352.751 369.346C360.09 369.626 364.117 362.405 364.117 362.405C364.117 362.405 364.806 373.629 360.37 380.415C355.936 387.197 355.124 401.207 355.124 401.207C355.124 401.207 349.722 393.452 348.753 386.387C347.755 379.351 341.261 374.065 341.261 374.065Z" fill="#FF4389"/>
<path d="M382.917 390.637C383.134 391.015 382.572 389.42 381.106 386.416C379.637 383.415 379.637 383.227 379.637 383.227C379.637 383.227 383.167 381.352 382.01 376.474C380.856 371.595 382.728 370.752 382.728 370.752C386.258 372.096 393.252 379.601 393.252 379.601C394.627 383.041 394.562 394.796 394.562 394.796L389.255 419.029C384.571 415.495 384.009 411.401 381.886 407.179C378.513 400.518 366.711 400.205 366.711 400.205C366.178 394.891 369.613 391.483 369.613 391.483C369.613 391.483 381.854 392.421 383.791 398.516C383.791 398.516 382.136 394.295 378.106 391.233C373.081 387.418 362.463 389.576 362.463 389.576C362.463 389.576 367.117 382.729 374.329 386.136C374.329 386.136 377.921 386.009 379.325 387.197C380.856 388.323 381.604 388.48 382.917 390.637Z" fill="#FF4389"/>
<path d="M341.261 352.023C341.261 352.023 350.473 345.771 362.586 351.304H369.613C369.613 351.304 368.053 353.273 367.429 355.15C367.429 355.15 369.925 357.246 371.362 363.153C372.831 369.096 376.39 372.097 380.606 372.002C380.606 372.002 376.858 362.528 377.7 358.808C377.7 358.808 379.481 355.993 381.136 356.12C382.79 356.215 386.008 356.839 387.568 358.307C389.131 359.778 393.126 364.748 393.314 370.785C393.314 370.785 395.157 363.498 394 359.964C392.846 356.433 369.802 336.672 369.802 336.672C369.802 336.672 354.032 340.831 347.788 345.739C341.573 350.585 341.261 352.023 341.261 352.023Z" fill="#FF4389"/>
<path d="M315.5 462.238C315.5 462.238 326.71 445.823 335.014 448.732C343.322 451.639 352.845 460.989 367.803 462.238C367.803 462.238 276.34 510.795 257.635 569.421C257.635 569.421 299.261 557.884 312.721 542.282L301.26 571.296C301.26 571.296 381.012 488.001 412.176 479.279C412.176 479.279 382.572 477.089 360.464 497.071C360.464 497.071 383.508 476.809 386.32 461.832C386.32 461.832 381.948 455.515 381.636 448.387C381.636 448.387 359.216 452.797 338.638 430.003C338.638 430.003 332.391 400.986 317.778 393.201C317.778 393.201 326.489 415.026 324.022 430.628C321.526 446.23 315.717 439.883 315.5 462.238Z" fill="#FF4389"/>
<path d="M447.993 498.321L464.199 599.967H486.932L447.993 498.321Z" fill="#FF4389"/>
<path d="M359.528 589.088L417.795 495.193C417.795 495.193 399.405 544.157 386.008 566.326C372.61 588.463 359.528 589.088 359.528 589.088Z" fill="#FF4389"/>
<path d="M251.421 386.979C251.421 386.979 238.774 395.89 220.569 394.891C209.33 394.266 201.522 388.763 197.336 380.477C197.024 377.694 196.901 374.505 197.089 370.752C198.337 346.207 225.129 321.662 225.129 321.662L230.125 319.569L231.373 349.117C231.373 349.117 228.688 356.807 220.975 360.559C220.975 360.559 216.198 381.665 219.633 388.229L251.421 386.979Z" fill="#FF4389"/>
<path d="M265.254 472.744C248.08 497.224 224.85 516.705 215.011 524.396C214.355 521.613 213.763 518.518 213.324 515.078L221.226 498.445L309.691 393.231C313.124 408.491 287.551 440.915 265.254 472.744Z" fill="#FF4389"/>
<path d="M344.476 362.434C344.476 362.434 355.998 362.434 360.058 362.434C360.058 362.434 356.967 358.369 352.722 358.682C348.412 358.997 344.476 362.434 344.476 362.434Z" fill="#FF4389"/>
<path d="M380.199 366.281C380.199 366.281 384.135 363.153 386.32 364.936C388.507 366.72 390.88 372.002 390.88 372.002C390.88 372.002 387.038 366.905 380.199 366.281Z" fill="#FF4389"/>
<path d="M363.399 385.29C363.399 385.29 369.083 381.258 371.238 381.821C373.393 382.384 375.516 383.132 375.516 383.132V381.759C375.516 381.759 373.237 379.383 371.489 378.976C369.769 378.57 366.304 378.976 366.304 378.976L363.399 385.29Z" fill="#FF4389"/>
<path d="M301.666 356.338C301.666 356.338 296.544 371.595 292.39 377.694C288.237 383.79 251.453 396.671 251.453 396.671L301.666 356.338Z" fill="#FF4389"/>
<path d="M399.529 328.666C399.529 328.666 403.026 335.357 404.151 342.767H402.932C402.932 342.767 400.435 330.823 396.188 326.446L448.429 283.956L399.529 328.666Z" fill="#FF4389"/>
<path d="M278.775 66.6515C272.937 62.8682 264.568 60.4921 255.263 60.4921C245.957 60.4921 237.588 62.8682 231.75 66.6515C235.498 59.6164 244.615 54.6764 255.263 54.6764C265.91 54.6764 275.03 59.6164 278.775 66.6515Z" fill="#FF4389"/>
<path d="M298.887 66.9957C298.887 68.1527 298.793 69.2781 298.637 70.4038C296.356 54.1452 277.809 41.482 255.262 41.482C250.641 41.482 246.207 42.0135 242.053 42.9827C240.243 40.4816 238.683 38.7304 237.402 37.5113C242.866 35.6976 248.924 34.6659 255.295 34.6659C279.37 34.6971 298.887 49.1736 298.887 66.9957Z" fill="#FF4389"/>
<path d="M281.554 18.9075C281.463 15.2805 276.997 16.5937 276.997 16.5937C276.997 16.5937 277.091 13.811 275.746 10.4654C274.403 7.11989 269.001 5.36896 260.697 10.4654C252.389 15.5619 250.517 14.6239 245.739 12.529C240.961 10.4654 240.649 17.6255 238.556 14.9053C237.246 13.1856 234.09 13.2482 232 13.4983C231.529 11.0595 236.778 7.71396 241.179 9.71503C241.179 9.71503 249.266 -0.540457 261.383 0.0223448C273.5 0.585146 279.119 5.02503 277.091 13.811C277.091 13.811 280.962 13.2482 281.866 15.8746C281.866 15.9058 281.931 17.1565 281.554 18.9075Z" fill="#FF4389"/>
<path d="M225.565 65.4637C225.565 65.4637 227.658 79.5025 226.816 83.3483C226.816 83.3483 234.809 76.8137 234.184 71.1857C233.56 65.5575 229.221 64.0256 225.565 65.4637Z" fill="#FF4389"/>
<path d="M228.783 91.5714L246.019 78.3768L264.194 80.4717C264.194 80.4717 265.068 84.724 262.384 86.2874C259.728 87.8509 246.552 84.0051 246.552 84.0051C246.552 84.0051 236.06 91.3527 228.783 91.5714Z" fill="#FF4389"/>
<path d="M236.06 92.2901L256.731 89.0698L272.625 96.8552C272.625 96.8552 273.467 101.639 270.032 102.264L253.826 94.3538C253.826 94.3538 241.368 96.7302 238.774 95.198C236.151 93.6661 236.06 92.2901 236.06 92.2901Z" fill="#FF4389"/>
<path d="M244.052 101.514L255.139 98.45C255.139 98.45 261.133 101.983 268.127 102.546C268.127 102.546 268.816 107.048 264.194 106.423C259.572 105.798 252.828 102.452 252.828 102.452C252.828 102.452 247.644 105.204 244.052 101.514Z" fill="#FF4389"/>
<path d="M246.145 112.801L249.266 131.843C249.266 131.843 260.291 126.403 271.283 131.843V105.079L268.94 105.485C268.94 105.485 268.907 109.581 264.35 110.05C264.35 110.05 258.448 108.549 253.637 108.893C248.768 109.3 246.145 112.801 246.145 112.801Z" fill="#FF4389"/>
<path d="M285.051 121.056C284.928 122.025 284.804 122.995 284.678 123.932C283.774 124.527 282.555 124.933 280.962 124.933C267.441 124.933 277.745 101.733 277.745 101.733C277.745 101.733 278.151 99.5445 275.872 96.4179C273.594 93.291 262.943 83.3171 273.188 77.9078C273.188 77.9078 279.181 93.76 284.086 96.1989C284.739 102.671 285.834 114.771 285.051 121.056Z" fill="#FF4389"/>
<path d="M284.148 495.193C284.148 495.193 282.679 480.936 285.178 471.182C287.674 461.396 310.003 429.785 310.003 429.785C310.003 429.785 297.418 483.656 284.148 495.193Z" fill="#FF4389"/>
<path d="M274.062 25.755C267.503 18.3761 257.98 22.3157 257.98 22.3157C246.051 14.8429 237.838 24.3793 237.838 24.3793C237.838 24.3793 244.52 27.3809 246.581 30.9452C246.581 30.9452 249.516 30.789 253.764 30.9764C254.326 29.9135 255.545 28.1 257.918 26.224C257.918 26.224 260.508 28.6628 262.133 31.7269C264.194 32.0084 266.317 32.4149 268.41 32.9151C269.096 31.9772 271.095 29.4758 273.438 28.569C273.438 28.569 275.499 31.8831 275.746 35.5102C277.026 36.1354 278.213 36.8859 279.246 37.6989C279.493 33.0401 282.617 29.976 282.617 29.976C279.776 24.0979 274.062 25.755 274.062 25.755ZM248.206 27.4747C247.27 25.5987 244.27 24.5043 244.27 24.5043C246.831 23.0973 249.142 23.5663 249.142 23.5663C248.518 24.7544 248.206 27.4747 248.206 27.4747ZM251.983 27.7873L251.609 23.4725C253.797 23.8477 254.544 24.3167 254.544 24.3167L251.983 27.7873ZM263.694 28.6003C263.164 26.6617 261.289 24.9108 261.289 24.9108C264.35 24.2854 265.537 24.9108 265.537 24.9108L263.694 28.6003ZM267.097 29.6945V25.1922C270.097 25.4423 271.657 26.9119 271.657 26.9119C270.032 27.2245 267.097 29.6945 267.097 29.6945Z" fill="#FF4389"/>
<path d="M457.546 404.644L404.992 396.547C404.992 396.547 404.931 390.325 406.179 387.386L457.546 404.644Z" fill="#FF4389"/>
<path d="M338.668 430.003C338.668 430.003 374.173 439.633 384.041 432.099C384.041 432.099 382.166 434.318 381.668 448.387C381.136 462.457 356.655 453.516 356.655 453.516L338.7 440.414V430.003H338.668Z" fill="#FF4389"/>
<path d="M365.024 311.221L360.652 310.909C360.62 311.251 360.152 318.131 361.871 324.226C360.278 324.008 358.497 323.852 356.593 323.79C352.722 317.005 352.189 310.252 352.189 310.19L347.505 310.502C347.537 310.782 348.006 317.005 351.376 323.946C349.442 324.103 347.411 324.415 345.321 324.884C341.853 318.818 340.104 312.846 340.075 312.784L339.854 312.846C338.668 313.627 337.481 314.502 336.327 315.41C337.046 317.535 338.573 321.694 341.011 326.104C339.448 326.635 337.855 327.292 336.295 328.073L331.579 319.664C330.457 320.757 329.395 321.851 328.426 322.944L332.486 330.198C331.081 331.074 329.674 332.076 328.302 333.202L324.149 327.884C323.056 329.261 322.117 330.481 321.37 331.451L325.023 336.108C322.056 339.018 319.215 342.549 316.592 346.864C316.592 346.864 320.869 350.428 329.707 348.677C329.707 348.677 346.757 336.047 364.836 335.545C367.553 335.484 369.769 333.358 370.052 330.667C370.208 329.199 370.364 327.604 370.426 326.228C370.426 326.228 369.083 325.697 366.802 325.134C364.462 319.664 365.024 311.313 365.024 311.221Z" fill="#FF4389"/>
<path d="M389.755 335.11C390.161 333.108 390.786 331.481 391.286 330.42C390.503 329.167 389.537 327.823 388.351 326.384C387.789 327.387 386.726 329.541 385.975 332.138C384.759 331.295 383.573 330.544 382.416 329.857C382.51 328.855 382.884 325.541 384.197 321.913C383.073 320.852 381.824 319.82 380.45 318.788C379.325 321.978 378.669 325.541 378.327 327.761C377.42 327.354 376.608 327.009 375.86 326.729C375.204 323.166 375.795 317.662 376.016 315.817C374.892 315.16 373.735 314.502 372.487 313.878C372.487 313.878 371.394 318.724 371.862 325.48L372.548 331.92C372.86 334.859 374.329 337.58 376.608 339.454C378.951 341.394 381.948 343.77 383.823 345.052C387.35 347.428 402.496 357.839 404.307 365.936L404.525 361.435C402.119 348.896 396.031 340.58 389.755 335.11Z" fill="#FF4389"/>
<path d="M389.005 318.88C389.005 318.88 368.551 296.306 329.924 308.25C329.924 308.25 341.196 300.244 358.621 301.904C358.686 301.904 358.715 301.904 358.777 301.904C362.651 302.278 366.802 303.154 371.206 304.687L387.1 232.053L374.424 305.468C374.424 305.468 374.424 305.468 374.453 305.5C374.486 305.5 374.515 305.53 374.58 305.562C374.986 305.78 376.108 306.343 377.577 307.186C377.609 307.186 377.638 307.219 377.671 307.251C382.166 309.783 389.505 314.691 389.005 318.88Z" fill="#FF4389"/>
<path d="M759.09 233.286C775.947 226.199 787.574 211.1 787.574 193.672V168.165C787.574 147.964 772.014 130.982 750.78 125.812L748.762 96.607C752.25 93.9708 754.506 90.1017 754.506 85.7193V83.6651C754.506 78.6321 751.534 74.2151 747.053 71.6474L745.377 47.3383C745.377 47.3383 744.761 46.5165 743.053 45.9003C742.917 42.5792 742.779 39.2579 742.643 35.9368C742.334 35.8341 742.028 35.7315 741.686 35.6631C741.48 30.7326 740.832 13.7506 740.661 9.57348C739.291 9.12837 738.369 8.99151 737.273 9.16258C736.76 9.23101 736.248 9.36787 735.632 9.57348C735.461 13.7848 734.778 30.7668 734.571 35.6631C734.265 35.7315 733.924 35.8341 733.614 35.9368C733.479 39.2924 733.343 42.6135 733.205 45.9687C731.599 46.5849 730.88 47.3383 730.88 47.3383L729.204 71.6474C724.723 74.2151 721.751 78.6321 721.751 83.6651V85.7193C721.751 90.0675 723.972 93.9708 727.496 96.607L725.478 125.47C703.457 130.126 687.078 147.485 687.078 168.199V193.707C687.078 211.168 698.702 226.233 715.562 233.32L674.802 599.977H737.344H799.85L759.09 233.286Z" fill="#060707"/>
<path d="M750.78 125.812C746.505 124.785 741.96 124.203 737.308 124.203C735.667 124.203 734.027 124.272 732.418 124.409L734.027 84.692C744.284 81.5081 748.011 87.1231 748.011 87.1231L750.78 125.812Z" fill="#FF4389"/>
<path d="M729.82 188.195V350.346L731.393 190.934H741.547L745.377 448.029H750.164L744.797 188.195H729.82Z" fill="#FF4389"/>
<path d="M755.225 198.637L795.063 557.009L757.311 367.431L746.334 189.735L755.225 198.637Z" fill="#FF4389"/>
<path d="M782.068 202.232C782.068 201.924 782.104 201.616 782.104 201.308C782.104 177.752 754.884 155.84 714.946 158.647C713.953 158.716 712.996 158.271 712.38 157.483L711.732 156.661C711.732 156.661 737.308 139.474 768.084 159.058C768.084 159.058 778.068 166.042 783.403 174.91C783.264 174.431 774.615 143.514 735.942 144.404C727.973 144.575 718.092 146.903 708.518 151.423C708.518 151.423 713.85 140.501 737.308 139.474C765.041 138.275 787.574 158.784 787.574 182.58C787.574 189.667 785.592 196.343 782.068 202.232Z" fill="#FF4389"/>
<path d="M742.608 35.9372C742.747 39.2583 742.882 42.5794 743.017 45.9005C740.625 44.2569 738.608 44.3598 738.608 44.3598L738.54 35.3891L737.002 35.4234L737.789 9.06003C738.882 8.88896 739.291 9.09425 740.661 9.53936C740.832 13.7507 741.48 30.7327 741.686 35.629C741.992 35.7658 742.302 35.8343 742.608 35.9372Z" fill="#FF4389"/>
<path d="M747.021 71.6818L745.309 47.3727C745.309 47.3727 744.661 46.6193 742.985 45.9347C739.223 44.4283 735.735 44.7704 735.735 44.7704L734.675 69.5934V69.6961C727.254 71.0656 721.716 76.8175 721.716 83.6995V85.7537C721.716 86.233 721.751 86.7123 721.783 87.1575C722.605 79.8991 729.581 74.2498 738.095 74.2498C746.608 74.2498 753.584 79.9333 754.371 87.1575C754.439 86.6781 754.439 86.233 754.439 85.7537V83.6995C754.474 78.6664 751.499 74.2498 747.021 71.6818Z" fill="#FF4389"/>
<path d="M748.762 96.6072C745.89 98.7644 742.199 100.065 738.13 100.065C736.486 100.065 734.913 99.8599 733.443 99.449L734.162 82.6722C744.968 80.9605 748.079 87.1233 748.079 87.1233L748.114 87.0549L748.762 96.6072Z" fill="#FF4389"/>
</g>
<defs>
<clipPath id="clip0">
<rect width="800" height="600" fill="white"/>
</clipPath>
</defs>
</svg>
